<svg xmlns="http://www.w3.org/2000/svg" width="150" height="184.347" viewBox="0 0 150 184.347">
  <g id="Group_5" data-name="Group 5" transform="translate(509 184.347)">
    <g id="Group_4" data-name="Group 4" transform="translate(-6 11)">
      <text id="Wrong" transform="translate(-428 -23)" fill="#db4d48" style="font-size: 2.9rem;" font-family="SegoeUI-Bold, Segoe UI" font-weight="700" letter-spacing="0.003em"><tspan x="-74.667" y="0">Wrong</tspan></text>
    </g>
    <g id="Icon_ionic-ios-close-circle-outline" data-name="Icon ionic-ios-close-circle-outline" transform="translate(-497.917 -187.722)">
      <path id="Path_1" data-name="Path 1" d="M57.627,51.064,42.287,35.725,57.627,20.386a4.651,4.651,0,0,0-6.578-6.578L35.709,29.147,20.37,13.808a4.45,4.45,0,0,0-6.578,0,4.494,4.494,0,0,0,0,6.578L29.131,35.725,13.792,51.064a4.5,4.5,0,0,0,0,6.578,4.62,4.62,0,0,0,6.578,0L35.709,42.3,51.048,57.642a4.673,4.673,0,0,0,6.578,0A4.621,4.621,0,0,0,57.627,51.064Z" transform="translate(28.208 28.192)" fill="#db4d48"/>
      <path id="Path_2" data-name="Path 2" d="M63.917,11.525A52.4,52.4,0,0,1,100.97,100.97,52.4,52.4,0,0,1,26.864,26.864,52.045,52.045,0,0,1,63.917,11.525m0-8.15a60.542,60.542,0,1,0,60.542,60.542A60.533,60.533,0,0,0,63.917,3.375Z" transform="translate(0)" fill="#db4d48"/>
    </g>
  </g>
</svg>
